<!-- Generated by IcoMoon.io -->
<svg version="1.1" xmlns="http://www.w3.org/2000/svg" width="43" height="32" viewBox="0 0 43 32">
<title>chemex</title>
<path d="M27.711 21.213c-0.002-0.003-0.003-0.006-0.005-0.010l-2.269-4.903c-0.036-0.078-0.12-0.12-0.204-0.104-0.203 0.041-0.62 0.117-1.225 0.19-0.101 0.012-0.194-0.060-0.206-0.161l-0.069-0.567c-0.013-0.168-0.035-0.365-0.070-0.575v-0c-0.048-0.282-0.122-0.589-0.235-0.885-0.008-0.020-0.014-0.041-0.018-0.063-0.022-0.112-0.095-0.492-0.14-0.875 0.080-0.012 0.157-0.025 0.23-0.038 0.023 0.322 0.1 0.535 0.168 0.738 0.234 0.701 0.303 1.504 0.325 1.922 0.008 0.155 0.145 0.27 0.298 0.251l0.988-0.124c0.040-0.005 0.078-0.019 0.112-0.040 0.535-0.343 0.293-0.86 0.244-0.953-0.004-0.008-0.009-0.016-0.014-0.023-0.341-0.499-0.882-1.802-0.979-2.037-0.010-0.024-0.017-0.050-0.019-0.076-0.137-1.422 0.675-2.552 0.784-2.695 0.008-0.011 0.016-0.023 0.022-0.035 0.159-0.294 0.23-0.501 0.255-0.646 0.030-0.178-0.124-0.331-0.302-0.304l-0.971 0.147c-0.115 0.018-0.206 0.108-0.223 0.224-0.038 0.263-0.137 0.809-0.394 1.723-0.022 0.078-0.042 0.153-0.061 0.226-0.082 0.023-0.168 0.043-0.258 0.060 0.295-0.994 0.784-2.958 1.188-6.115 0.069-0.027 0.139-0.055 0.206-0.082l-0.658 3.785 1.125-0.208 2.375-4.5 0.219-0.345c0.065-0.070 0.031-0.114 0.031-0.114 0-0.667-5.958-0.333-5.958-0.333-8.511 0-8.096 0.585-8.010 0.659l0.373 0.462 2.471 4.213c0 0-0.292 0.458 4.958 0.333 0 0 0.958-3.625 0.667-4.292 0 0-6.9 0.208-8.162-0.373l-0.272-0.321c1.357 0.773 8.6 0.485 8.6 0.485l0.375 0.25c2.042 0.708 1.958-0.333 1.958-0.333 2.022-0.202 2.695-0.435 2.911-0.587-0.052 0.086-0.137 0.223-0.213 0.32-0.386 0.139-2.49 0.434-2.49 0.434-0.068 0.17-0.22 0.341-0.273 0.397-0.217 0.112-0.376 0.151-0.376 0.151s-0.096 0.022-0.195 0.052c-0.362 0.061-0.974 0.048-1.669-0.455 0.093 0.12 0.321 0.942-0.741 6.587-0.135-0.007-0.264-0.016-0.382-0.027 0.050-0.666 0.151-1.376 0.211-1.771 0.025-0.161-0.102-0.306-0.265-0.302-0.974 0.023-3.913 0.064-4.644-0.236-0.142-0.058-0.306 0.020-0.352 0.167-0.046 0.149-0.046 0.334 0.102 0.519 0.333 0.417 1.079 1.723 1.042 2.5 0 0 0 0.833-0.167 1.333-0.146 0.438-0.675 1.194-0.804 1.376-0.021 0.030-0.036 0.064-0.043 0.1-0.034 0.169-0.080 0.652 0.431 0.857 0.537 0.215 3.78 0.214 4.683 0.21 0.143-0.001 0.26-0.116 0.261-0.26 0.001-0.266-0.046-0.776-0.277-1.7-0.075-0.302-0.125-0.757-0.157-1.165 0.093 0.016 0.186 0.029 0.277 0.039 0.033 0.368 0.095 0.833 0.213 1.168 0 0 0.108 0.324 0.214 0.872 0.001 0.006 0.002 0.012 0.003 0.018 0.006 0.060 0.041 0.426 0.077 0.806 0.019 0.204-0.136 0.383-0.341 0.392-1.271 0.053-2.86 0.035-4.694-0.157-0.079-0.008-0.154 0.034-0.188 0.106l-2.359 5.124c-0.002 0.004-0.003 0.008-0.005 0.012-0.059 0.157-1.213 3.288 0.476 5.010 0.040 0.040 0.056 0.098 0.048 0.154-0.052 0.384 0.14 1.891 6.513 1.455 0.005-0 0.010-0 0.014-0 0.212 0.003 5.285 0.045 5.733-1.703 0.008-0.030 0.021-0.058 0.041-0.080 0.24-0.271 1.792-2.21 0.138-5.253zM23.233 12.745c-0-0.131-0.111-0.234-0.242-0.223-0.282 0.024-0.728 0.063-0.99 0.085-0.12 0.010-0.209 0.113-0.204 0.232 0.004 0.086 0.011 0.205 0.022 0.344-0.097-0.006-0.189-0.013-0.275-0.021-0.033-0.455-0.045-0.829-0.045-0.829 0-0.192 0.009-0.403 0.024-0.621 0.124 0.021 0.247 0.036 0.368 0.047-0.025 0.13-0.050 0.261-0.075 0.396-0.033 0.172 0.108 0.329 0.283 0.314l0.82-0.070c0.18-0.015 0.333-0.135 0.391-0.306 0.036-0.106 0.080-0.242 0.132-0.411 0.093-0.017 0.18-0.035 0.26-0.053-0.172 0.684-0.22 1.15-0.208 1.495-0.077 0.014-0.155 0.026-0.235 0.036-0.015-0.146-0.025-0.289-0.026-0.414z"></path>
</svg>
