<!-- Generated by IcoMoon.io -->
<svg version="1.1" xmlns="http://www.w3.org/2000/svg" width="43" height="32" viewBox="0 0 43 32">
<title>coldbrew</title>
<path d="M29.030 4.946c-1.453-0.183-4.795-0.331-5.426-0.358-0.058-0.003-0.104-0.050-0.104-0.108v-0.747c0-0.044-0.027-0.084-0.067-0.101-0.136-0.055-0.633-0.233-1.578-0.217-0.946-0.015-1.442 0.162-1.578 0.217-0.041 0.017-0.067 0.056-0.067 0.101v0.747c0 0.058-0.046 0.106-0.104 0.108-0.631 0.027-3.974 0.175-5.426 0.358-0.054 0.007-0.095 0.053-0.095 0.108v0.004c0 0.061 0.049 0.109 0.109 0.109h7.14v0.125h-6.708v5.458c0 0-0.040 0.896 1.417 1.407v1.093l0.003-0.001c-0.002 0.017-0.003 0.033-0.003 0.050v4.172c0 0.145-0.071 0.28-0.19 0.363-1.041 0.731-1.2 1.458-1.223 1.628-0.002 0.020-0.004 0.039-0.004 0.059v5.462c0 0.14 0.065 0.274 0.18 0.356 1.051 0.757 6.062 0.86 6.57 0.868v0.001c0 0 0.008 0 0.021-0s0.021 0 0.021 0v-0.001c0.508-0.008 5.519-0.111 6.57-0.868 0.114-0.082 0.18-0.216 0.18-0.356v-5.461c0-0.020-0.001-0.039-0.004-0.059-0.023-0.17-0.182-0.897-1.223-1.628-0.119-0.083-0.19-0.218-0.19-0.363v-4.172c0-0.003-0-0.005-0-0.008h0v-1.041c0.685-0.235 1.235-0.659 1.25-1.418 0.042-2.042 0-5.542 0-5.542h-6.583v-0.125h7.1c0.060 0 0.109-0.049 0.109-0.109v-0.004c0-0.054-0.040-0.1-0.095-0.107zM27.917 24.97c0 0.040-0.17 0.078-0.476 0.113-0.92-0.222-3.078-0.53-5.607-0.53-2.531 0-4.713 0.308-5.645 0.53-0.31-0.035-0.48-0.073-0.48-0.114 0-0.161 2.754-0.708 6.125-0.708s6.083 0.547 6.083 0.708zM25.832 18.364c0.005 0.001 0.010 0.002 0.015 0.003 0.21 0.036 0.362 0.222 0.362 0.435v0.605c0 0.198-0.13 0.37-0.32 0.425-0.426 0.125-1.417 0.277-3.722 0.292v-0.123c2.444 0 3.833-0.333 3.833-0.333v-1.042l-0.632-0.049c-3.201-0.43-6.405-0.085-7.242 0.020v0c-0.373 0.014-0.377 0.112-0.377 0.112v0.958c1.689 0.247 3.161 0.331 4.375 0.333v0.124c-0.068 0-0.137 0.001-0.208 0.001v0c-0.021 0-0.042 0-0.063 0s-0.041 0-0.063 0v-0c-2.484-0.005-3.531-0.164-3.972-0.293-0.19-0.055-0.32-0.228-0.32-0.425v-0.605c0-0.213 0.152-0.399 0.362-0.435 0.005-0.001 0.010-0.002 0.015-0.003 0.215-0.035 0.373-0.22 0.373-0.437v-2.984c0-0.245 0.198-0.443 0.443-0.443h6.323c0.245 0 0.443 0.198 0.443 0.443v2.984c0 0.218 0.158 0.402 0.373 0.437zM17.994 18.633c4.393 0.472 7.1 0.093 7.621 0.008l0.282 0.019c-1.705 0.535-7.363 0.108-8.074 0.054 0.016-0.047 0.090-0.070 0.17-0.080zM27.070 12.307c-0.179 0.26-0.535 0.525-1.245 0.555-0.737-0.012-1.548-0.047-1.88-0.063-0.103-0.005-0.205 0.027-0.287 0.089-0.149 0.112-0.407 0.32-0.7 0.612-0.378 0.378-0.842 0.416-1.063 0.418-0.22-0.002-0.684-0.039-1.063-0.418-0.293-0.293-0.551-0.5-0.7-0.612-0.082-0.062-0.184-0.094-0.287-0.089-0.297 0.014-0.978 0.044-1.647 0.058 0 0-1.253 0.050-1.518-0.654 0.619 0.194 1.484 0.32 2.693 0.297 4.333-0.083 5.167 0 5.167 0s1.394 0.133 2.528-0.193zM23.552 5.833c0.040 0 0.073 0.032 0.073 0.073v0.229c0 0.040-0.032 0.073-0.073 0.073h-0.896c-0.040 0-0.073 0.032-0.073 0.073v1.302c0 0.084-0.134 0.074-0.208 0.083-0.036 0.005-0.042 0.073-0.042 0.11v3.521c0 0.042 0.035 0.075 0.077 0.073 0.288-0.013 0.382 0.066 0.41 0.107 0.008 0.012 0.012 0.026 0.012 0.041v0.485c0 0.026-0.014 0.050-0.036 0.063-0.141 0.085-0.299 0.066-0.332 0.060-0.005-0.001-0.010-0.001-0.015-0.001-0.048 0.003-0.304 0.017-0.575 0.018-0.271-0.001-0.527-0.015-0.575-0.018-0.005-0-0.010 0-0.015 0.001-0.034 0.005-0.191 0.024-0.332-0.060-0.022-0.013-0.036-0.037-0.036-0.063v-0.485c0-0.015 0.004-0.029 0.012-0.041 0.029-0.041 0.123-0.12 0.41-0.107 0.042 0.002 0.077-0.031 0.077-0.073v-3.521c0-0.037-0.005-0.105-0.042-0.11-0.074-0.009-0.208 0-0.208-0.083l0.042-1.302c0-0.040-0.074-0.073-0.115-0.073h-0.896c-0.040 0-0.073-0.032-0.073-0.073v-0.229c0-0.040 0.032-0.073 0.073-0.073h3.354z"></path>
</svg>
