<!-- Generated by IcoMoon.io -->
<svg version="1.1" xmlns="http://www.w3.org/2000/svg" width="43" height="32" viewBox="0 0 43 32">
<title>espresso</title>
<defs>
	<style>
   path {
        animation-name: grind;
        animation-duration: 2s;
        animation-timing-function: linear;
        animation-iteration-count: infinite;

      }

    @keyframes grind {
        0%{ transform: rotate(10deg);}
        50%{ transform: rotate(-10deg);}
        100%{ transform: rotate(10deg);}
      }


	</style>
</defs>
<path d="M36.081 19.374v0c0.004-0.422-0.205-0.903-0.873-1.374 0 0-0.875-0.625-1.542-0.792l0.042-0.125c0 0-0.593-0.148-1.365-0.215 1.293-0.027 2.050-0.132 2.457-0.216 0.238-0.049 0.408-0.259 0.408-0.502v-1.234c0 0-0.875 0.458-3.5 0.458-0.028 0-0.055-0-0.083-0v-0.125c0.014 0 0.028 0 0.042 0 2.542 0 3.417-0.417 3.417-0.417l-1.542-0.875c0 0-0.75 0.208-1.917 0.208v-0.094c1.1 0.025 1.708-0.182 1.786-0.229 0.016-0.003 0.031-0.006 0.047-0.010l-0.205-0.547c-0.030-0.079-0.042-0.163-0.038-0.248 0.033-0.645 0.198-3.516 0.494-3.997 0.233-0.378 0.608-0.838 0.813-1.081 0.094-0.111 0.145-0.251 0.145-0.396v-1.157c0-0.112-0.030-0.222-0.088-0.317-0.157-0.256-0.584-0.688-1.716-0.875v0c-0.653-0.178-1.662-0.105-2.15-0.053-0.095 0.009-0.186 0.020-0.273 0.032-0.006 0.001-0.010 0.001-0.010 0.001-1.218 0.174-1.672 0.623-1.838 0.889-0.060 0.097-0.091 0.208-0.091 0.322v1.157c0 0.145 0.051 0.285 0.145 0.396 0.205 0.243 0.58 0.702 0.813 1.081 0.295 0.48 0.46 3.352 0.494 3.997 0.005 0.084-0.009 0.168-0.038 0.248l-0.205 0.547c0.016 0.003 0.031 0.006 0.047 0.010 0.078 0.047 0.687 0.254 1.786 0.229v0.094c-1.127-0.010-2-0.208-2-0.208l-1.625 0.875c0 0 1.676 0.4 3.625 0.416v0.125c-2.511-0.019-3.708-0.457-3.708-0.457v1.193c0 0.26 0.185 0.482 0.441 0.527 0.477 0.085 1.361 0.2 2.736 0.231-0.188 0.019-0.373 0.049-0.552 0.091l0.042 0.125c0 0-2.208 0.083-3.25 1.833 0 0-0.137 0.276-0.084 0.666v0.585h0.003c0.022 0.606 0.164 0.5 0.164 0.5s0.117-0.184 0.235-0.16c-0.148-0.153-0.253-0.288-0.318-0.38v-0.227c0.239 0.605 1.004 1.35 3.167 1.809 0 0 0.25 0.055 0.664 0.084l-0.065 0.121c-0.505-0.032-1.051-0.125-1.557-0.33l-0.167 0.25c0 0 0.532 0.284 1.632 0.354l0.010 0.050c-1.21-0.053-1.641-0.362-1.641-0.362l0.125 0.542c0.589 0.192 1.132 0.277 1.609 0.3l0.014 0.073c-0.953-0.065-1.706-0.331-1.706-0.331l-0.167-0.625 0.208-0.292c-0.776-0.189-1.331-0.578-1.69-0.919 0.024 0.050 0.046 0.118 0.065 0.21 0.108 0.537 0.030 1.719 0.006 2.042h-0.461c-0.103-0.247-0.368-1.025-0.129-2.083l-2.458-0.125c0 0-0.26 0.296-0.31 0.932l-0.085-0.004c0.022-0.345 0.097-0.704 0.27-1.011l-0.292-0.458c0 0-0.396 0.117-0.404 1.449l-0.13-0.006c0.019-0.59 0.123-1.185 0.41-1.568l-2.958 0.542c0 0-0.244 0.331-0.258 0.892l-0.268-0.013c-0.010-0.343 0.053-0.695 0.276-0.962l-5.583-1.417c0 0-0.687 0.688-0.738 2.090l-0.232-0.011c0.046-1.423 0.721-2.078 0.721-2.078l-6.417 0.875c-0.792 0.833-0.25 1.833-0.25 1.833l6.333 1.625c-0.297-0.857-0.398-1.578-0.389-2.171l0.232 0.011c-0.011 0.595 0.093 1.315 0.407 2.16l5.917-0.75c0 0-0.235-0.535-0.273-1.12l0.264 0.012c0.004 0.29 0.071 0.635 0.259 1.025l2.708 0.917c0 0-0.18-0.884-0.162-1.807l0.133 0.006c0.003 0.437 0.046 0.998 0.154 1.718l0.417-0.375c0 0-0.178-0.623-0.15-1.323l0.085 0.004c-0.016 0.336 0.027 0.76 0.19 1.277 0 0 2.208 0.167 2.75 0h0.417c1.583 1.25 3.583 1.333 3.583 1.333 3.458 0.042 4.125-1.375 4.125-1.375l0.625-2.917-0.002-0.627zM32.101 17.223c0.567 0.045 1.525 0.203 2.483 0.735 0 0 1.333 0.708 0.708 1.583 0 0-0.155-1.298-2.375-1.792-0.291-0.065-0.557-0.104-0.83-0.123l0.014-0.404zM32.080 17.813c0.289 0.026 0.461 0.062 0.461 0.062 2.708 0.542 2.667 1.75 2.667 1.75-0.125-1.083-2.667-1.583-2.667-1.583s-0.178-0.027-0.468-0.046l0.006-0.183zM33.75 18.542c0 0 1.375 0.458 1.417 1.167l-0.083 0.083c0 0-0.295-1.177-3.028-1.272l0.009-0.25c0.519 0.025 1.128 0.097 1.685 0.271zM31.583 17.208c0 0 0.18-0.010 0.476 0.012l-0.014 0.404c-0.417-0.026-0.853-0.007-1.42 0.043 0 0-2.167 0.125-2.667 1.667 0 0-0.292-2.083 3.625-2.125zM29.333 18.167c1.064-0.409 2.11-0.407 2.705-0.358l-0.006 0.184c-0.425-0.025-1.069-0.030-1.741 0.090-1.561 0.279-2.333 1.333-2.333 1.333s0.070-0.749 1.375-1.25zM28 19.5c0.333-0.458 0.958-1.042 2.792-1.208 0 0 0.529-0.054 1.231-0.023l-0.009 0.25c-0.341-0.010-0.719-0.004-1.139 0.023 0 0-1.875-0.042-2.792 1.125l-0.083-0.167zM28.125 19.792c0 0 0.625-1.042 2.292-1.125 0 0 4.042-0.458 4.583 1.208 0 0-0.833 1.083-3.375 1.042 0 0-2.875-0.042-3.5-1.125zM36.017 20.123c-0.746 1.277-3.017 1.668-3.017 1.668v0.333l0.083 0.375c-0.643 0.28-1.364 0.332-2.001 0.293l-0.014-0.074c1.152 0.048 1.903-0.26 1.932-0.26l-0.083-0.333c-0.796 0.109-1.435 0.133-1.941 0.114l-0.009-0.048c0.523 0.030 1.172 0.012 1.95-0.107v-0.292c0 0-0.84 0.183-1.856 0.125l0.065-0.121c0.949 0.061 2.698-0.019 4.291-1.129 0 0 0.428-0.362 0.596-0.888 0.007 0.102 0.010 0.219 0.005 0.345z"></path>
</svg>
