<!-- Generated by IcoMoon.io -->
<svg version="1.1" xmlns="http://www.w3.org/2000/svg" width="43" height="32" viewBox="0 0 43 32">
<title>kalita</title>

<defs>
	<style>
   path {
        animation-name: sip;
        animation-duration: 2s;
        animation-timing-function: linear;
        animation-iteration-count: infinite;

      }

      @keyframes sip {
        0%{ transform: rotate(0deg);}
        100%{ transform: rotate(-30deg);}
      }


	</style>
</defs>

<path d="M25.603 18.4c0.038-0.115 0.145-0.192 0.266-0.192 0.106 0 0.203-0.060 0.25-0.155l0.593-1.185c0.048-0.096 0.147-0.156 0.254-0.155 1.019 0.014 6.164-0.148 5.826-4.88 0 0 0-1.117-2.226-1.496-0.016-0.002-0.032-0.004-0.048-0.004h-1.837c-0.191 0-0.326-0.188-0.266-0.369l0.222-0.666c0.026-0.079 0.017-0.165-0.027-0.235-0.243-0.386-1.516-1.426-8.193-1.73 0 0-6.488 0-8.602 1.509-0.251 0.179-0.352 0.503-0.255 0.796l3.031 9.093c0.050 0.149-0.033 0.31-0.183 0.356-0.921 0.284-1.647 0.717-1.866 1.372-0.75 2.25 7.875 2.25 7.875 2.25s7.125 0 7.125-1.875c0-0.803-0.757-1.331-1.888-1.672-0.151-0.046-0.236-0.207-0.186-0.357l0.135-0.405zM28.561 11.576c0.040-0.099 0.132-0.167 0.238-0.175 0.726-0.057 3.465-0.175 3.284 1.308-0.199 1.634-2.457 3.077-5.242 3.018-0.19-0.004-0.32-0.195-0.257-0.374l0.89-2.499c0.040-0.112 0.145-0.186 0.264-0.186h0.196c0.115 0 0.218-0.070 0.26-0.176l0.366-0.914zM12.378 9.063c0.381-0.434 1.891-1.324 7.872-1.229 6.733 0.107 7.77 1.097 7.93 1.382-0.017 0.005-0.032 0.013-0.046 0.025-0.073 0.060-0.738 0.366-1.239 0.513-0.001 0-0.002-0-0.001-0.001l0.19-0.418c0-0 0-0 0-0-0.003-0.006-0.086-0.205-0.25-0.042 0 0 0 0-0 0l-0.253 0.545c0 0-0 0-0.001 0-0.14 0.034-0.296 0.067-0.471 0.099-0.001 0-0.001-0-0.001-0.001l0.268-0.727c0 0 0 0 0 0 0-0.003-0.002-0.29-0.291-0.042 0 0-0 0-0 0l-0.305 0.824c0 0-0 0-0.001 0.001-0.157 0.024-0.326 0.047-0.509 0.070-0.001 0-0.001-0-0.001-0.001l0.315-1.144c0 0 0-0 0-0-0.042-0.331-0.33-0.045-0.333-0.042 0 0 0 0 0 0l-0.386 1.23c0 0-0 0.001-0.001 0.001-0.165 0.016-0.338 0.031-0.522 0.045-0 0-0.001-0-0.001-0.001l0.16-1.441c0 0 0-0 0-0-0.165-0.372-0.454-0.047-0.458-0.042 0 0 0 0 0 0l-0.159 1.513c0 0-0 0.001-0.001 0.001-0.208 0.012-0.428 0.022-0.659 0.030-0 0-0.001-0-0.001-0.001l0.070-1.626c0 0 0-0 0-0-0.165-0.372-0.454-0.047-0.458-0.042 0 0 0 0 0 0l-0.15 1.683c0 0-0 0.001-0.001 0.001-0.163 0.003-0.332 0.006-0.505 0.008-0 0-0.001-0-0.001-0.001l0.032-1.732c0-0 0-0 0-0-0.29-0.414-0.497-0.004-0.5 0 0 0 0 0 0 0l-0.071 1.735c0 0-0 0.001-0.001 0.001-0.15-0-0.302-0.001-0.459-0.003-0 0-0.001-0-0.001-0.001l-0.010-1.732c0 0 0-0 0-0-0.29-0.414-0.497-0.004-0.5 0 0 0 0 0 0 0l-0.030 1.723c0 0-0 0.001-0.001 0.001-0.15-0.003-0.304-0.007-0.46-0.012-0 0-0.001-0-0.001-0.001l-0.050-1.711c0 0 0-0 0-0-0.29-0.413-0.538-0.005-0.541 0 0 0 0 0 0 0l0.052 1.713c0 0-0 0.001-0.001 0.001-0.177 0.001-0.406 0-0.675-0.004-0 0-0.001-0-0.001-0.001v-1.709c0 0 0-0 0-0-0.207-0.371-0.577-0.006-0.583 0 0 0 0 0 0 0l0.076 1.697c0 0-0 0.001-0.001 0.001-0.162-0.005-0.333-0.011-0.512-0.019-0 0-0.001-0-0.001-0.001l-0.064-1.637c0 0 0-0 0-0-0.165-0.33-0.453-0.007-0.458 0 0 0 0 0 0 0l0.107 1.615c0 0-0 0.001-0.001 0.001-0.135-0.008-0.273-0.016-0.414-0.026-0 0-0.001-0-0.001-0.001l-0.108-1.506c0-0 0-0-0-0-0.29-0.331-0.456 0.074-0.458 0.079 0 0 0 0 0 0l0.195 1.398c0 0-0 0.001-0.001 0.001-0.129-0.010-0.259-0.022-0.391-0.035-0 0-0.001-0-0.001-0.001l-0.177-1.402c0 0 0-0-0-0-0.29-0.331-0.497 0.119-0.5 0.125 0 0 0 0 0 0l0.206 1.226c0 0.001-0 0.001-0.001 0.001-0.147-0.017-0.294-0.035-0.441-0.054-0 0-0.001-0-0.001-0.001l-0.179-1.131c0 0 0-0-0-0-0.331-0.373-0.498 0.078-0.5 0.083 0 0 0 0 0 0l0.18 0.975c0 0.001-0 0.001-0.001 0.001-0.147-0.023-0.293-0.047-0.439-0.074-0 0-0.001-0-0.001-0.001l-0.197-0.86c0 0 0-0-0-0-0.29-0.29-0.374 0.080-0.375 0.083 0 0 0 0 0 0l0.153 0.695c0 0.001-0 0.001-0.001 0.001-0.109-0.023-0.217-0.046-0.323-0.071v0l-0.162-0.5c0 0 0-0 0-0-0.248-0.29-0.332 0.038-0.333 0.042 0 0 0 0 0 0l0.065 0.35c0 0.001-0 0.001-0.001 0.001-0.106-0.028-0.795-0.23-1.005-0.292-0.004-0.072 0.018-0.146 0.070-0.205zM16.34 10.069c-0.153-0.015-0.308-0.031-0.464-0.049l0.464 0.049zM20.417 10.458c-5.864-0.091-7.518-0.67-7.985-0.976-0.046-0.030-0.079-0.071-0.1-0.117 0.455 0.152 1.552 0.472 2.617 0.627v0l0.009 0.001c0.152 0.022 0.313 0.044 0.485 0.065l0.002 0c1.082 0.134 2.56 0.245 4.555 0.274 5.114 0.073 7.542-0.519 8.191-0.95-0.122 0.292-1.045 1.18-7.775 1.075z"></path>
</svg>
