<!-- Generated by IcoMoon.io -->
<svg version="1.1" xmlns="http://www.w3.org/2000/svg" width="43" height="32" viewBox="0 0 43 32">
<title>kettle</title>

<defs>
	<style>
   path {
        animation-name: pour;
        animation-duration: 2s;
        animation-timing-function: linear;
        animation-iteration-count: infinite;

      }

      @keyframes pour {
        0%{ transform: rotate(0deg);}
        100%{ transform: rotate(-15deg);}
      }


	</style>
</defs>


<path d="M37.642 16.3c-0.172-0.401-0.344-1.146-1.49-1.433s-0.86-1.203-1.375-1.719c-0.516-0.516-1.433-0.516-1.949-1.203s-0.63-1.49-1.662-1.662-1.032-0.63-3.496 0.688l0.172 0.287-1.203 0.63c0 0 0.917 0.63 0.745 1.949l0.217 0.248h-0.193c-0.115-0.125-0.196-0.191-0.196-0.191 0.058-1.547-0.974-1.949-0.974-1.949h-4.738v-0.172h5.023l-0.358-0.557c-0.098-0.152-0.267-0.245-0.449-0.245h-4.216v-0.115h0.84v-0.401c0 0 1.433-0.401 1.433-1.433h-4.699c0 1.032 1.433 1.433 1.433 1.433v0.401h0.91v0.115h-4.188c-0.174 0-0.339 0.080-0.446 0.217l-0.46 0.585h5.095v0.172h-4.808c0 0-1.032 0.401-0.974 1.949 0 0-1.318 1.089-0.974 2.751 0 0-1.203 1.146-0.86 2.522 0 0-0.265 0.361-0.458 0.918h-0.172l0-0.001c0 0-5.215 0.172-4.929-4.757 0 0 0.401-3.324-3.553-4.7l-1.147 0.343c0 0 3.897 0.917 3.725 4.413 0 0-0.219 4.94 5.36 5.419 0.002 0.001 0.003 0.001 0.003 0.001l0.033 0.002c0.11 0.009 0.221 0.017 0.336 0.023v-0.001l0.169 0.011c-0.027 0.232-0.031 0.479 0.003 0.735 0 0 0.010 0.012 0.038 0.032v0.23l-0.21 0.368c0 0 4.458 0.719 8.771 0.622 1.87 0.018 3.729-0.126 5.148-0.257 1.784-0.165 2.988-0.365 2.988-0.365l-0.229-0.401c-0.003 0.003-0.006 0.006-0.009 0.009v-0.23c0.006-0.006 0.009-0.009 0.009-0.009 0.172-1.318-0.63-2.407-0.63-2.407 0.344-1.375-0.86-2.522-0.86-2.522 0.22-1.064-0.241-1.893-0.601-2.352h0.198l0.002 0.002c0.058 0 0.516 0 0.516 0s-0.401-1.719-0.917-2.12l0.688-0.458 0.287 0.401c0 0 0.287 0.115 0.401 0s1.089-0.745 1.089-0.745 0.516-0.287 0.917 0.057c0.401 0.344 0.172 0.688 1.032 1.49s1.203 0.688 1.548 1.032c0.344 0.344 0.401 1.089 0.86 1.375s0.974 0.344 1.375 0.803c0.401 0.458 0.229 0.688 0.401 0.974s0.86 0.516 1.261 0.287c0.4-0.23 0.572-0.688 0.4-1.089zM13.172 20.8c-0.055-0.004-0.111-0.008-0.165-0.012l0.153-0.664h0.168c-0.068 0.203-0.125 0.43-0.157 0.675zM29.583 21.64v0.235c-0.739 0.438-4.518 0.54-7.011 0.56l-0.003-0.003c0 0-0.436 0.006-1.119 0.006-0.454-0-0.799-0.003-0.978-0.005-0.007 0-0.013 0.001-0.020 0.002-2.523-0.017-6.484-0.119-7.16-0.578v-0.2c0.413 0.23 2.093 0.837 8.131 0.603 6.192 0.24 7.801-0.405 8.16-0.62z"></path>
</svg>
